HIERARCHY
ROOT Hips
{
	OFFSET 0.00000 0.00000 0.00000
	CHANNELS 6 Xposition Yposition Zposition Zrotation Yrotation Xrotation 
	JOINT LHipJoint
	{
		OFFSET 0 0 0
		CHANNELS 3 Zrotation Yrotation Xrotation
		JOINT LeftHip
		{
			OFFSET 1.77779 -1.88989 0.48267
			CHANNELS 3 Zrotation Yrotation Xrotation
			JOINT LeftKnee
			{
				OFFSET 2.53442 -6.96327 0.00000
				CHANNELS 3 Zrotation Yrotation Xrotation
				JOINT LeftAnkle
				{
					OFFSET 2.71068 -7.44755 0.00000
					CHANNELS 3 Zrotation Yrotation Xrotation
					JOINT LeftToe
					{
						OFFSET 0.17992 -0.49431 2.22524
						CHANNELS 3 Zrotation Yrotation Xrotation
						End Site
						{
							OFFSET 0.00000 -0.00000 1.14687
						}
					}
				}
			}
		}
	}
	JOINT RHipJoint
	{
		OFFSET 0 0 0
		CHANNELS 3 Zrotation Yrotation Xrotation
		JOINT RightHip
		{
			OFFSET -1.58469 -1.88989 0.48267
			CHANNELS 3 Zrotation Yrotation Xrotation
			JOINT RightKnee
			{
				OFFSET -2.60386 -7.15404 0.00000
				CHANNELS 3 Zrotation Yrotation Xrotation
				JOINT RightAnkle
				{
					OFFSET -2.73334 -7.50979 0.00000
					CHANNELS 3 Zrotation Yrotation Xrotation
					JOINT RightToe
					{
						OFFSET -0.25618 -0.70384 2.21822
						CHANNELS 3 Zrotation Yrotation Xrotation
						End Site
						{
							OFFSET -0.00000 -0.00000 1.16381
						}
					}
				}
			}
		}
	}
	JOINT lowerback
	{
		OFFSET 0 0 0
		CHANNELS 3 Zrotation Yrotation Xrotation
		JOINT Chest
		{
			OFFSET 0.03410 2.01612 -0.22230
			CHANNELS 3 Zrotation Yrotation Xrotation
			JOINT Chest2
			{
				OFFSET 0.03465 2.03012 0.00937
				CHANNELS 3 Zrotation Yrotation Xrotation
				JOINT lowerneck
				{
					OFFSET 0 0 0
					CHANNELS 3 Zrotation Yrotation Xrotation
					JOINT Neck
					{
						OFFSET -0.00219 1.70459 0.20857
						CHANNELS 3 Zrotation Yrotation Xrotation
						JOINT Head
						{
							OFFSET 0.02518 1.72339 -0.22179
							CHANNELS 3 Zrotation Yrotation Xrotation
							End Site
							{
								OFFSET 0.00282 1.74122 -0.09823
							}
						}
					}
				}
				JOINT LeftCollar
				{
					OFFSET 0 0 0
					CHANNELS 3 Zrotation Yrotation Xrotation
					JOINT LeftShoulder
					{
						OFFSET 3.36358 1.00547 -0.37661
CHANNELS 3 Zrotation Xrotation Yrotation
						JOINT LeftElbow
						{
OFFSET 0 -5.065070 0.000000
CHANNELS 3 Zrotation Xrotation Yrotation
							JOINT LeftWrist
							{
OFFSET 0 -3.601960 0.000000
CHANNELS 3 Zrotation Xrotation Yrotation
								JOINT lhand
								{
									OFFSET 0 0 0
CHANNELS 3 Zrotation Xrotation Yrotation
									JOINT LFingers
									{
OFFSET 0 -0.450350 0.000000
CHANNELS 3 Zrotation Xrotation Yrotation
										End Site
										{
OFFSET 0 -0.363080 0.000000
										}
									}
								}
								JOINT LThumb
								{
OFFSET 0 0.000000 0.000000
CHANNELS 3 Zrotation Xrotation Yrotation
									End Site
									{
OFFSET 0 -0.368620 0.368620
									}
								}
							}
						}
					}
				}
				JOINT RightCollar
				{
					OFFSET 0 0 0
					CHANNELS 3 Zrotation Yrotation Xrotation
					JOINT RightShoulder
					{
						OFFSET -3.50159 0.80383 -0.71526
CHANNELS 3 Zrotation Xrotation Yrotation
						JOINT RightElbow
						{
OFFSET 0 -5.363940 0.000000
CHANNELS 3 Zrotation Xrotation Yrotation
							JOINT RightWrist
							{
OFFSET 0 -3.580350 0.000000
CHANNELS 3 Zrotation Xrotation Yrotation
								JOINT rhand
								{
									OFFSET 0 0 0
CHANNELS 3 Zrotation Xrotation Yrotation
									JOINT RFingers
									{
OFFSET 0 -0.663750 0.000000
CHANNELS 3 Zrotation Xrotation Yrotation
										End Site
										{
OFFSET 0 -0.535130 0.000000
										}
									}
								}
								JOINT RThumb
								{
OFFSET 0 0.000000 0.000000
CHANNELS 3 Zrotation Xrotation Yrotation
									End Site
									{
OFFSET 0 -0.543300 0.543300
									}
								}
							}
						}
					}
				}
			}
		}
	}
}
MOTION
Frames: 8
Frame Time: 0.008333333333333333
11.509354 17.922074 24.707452 -359.051482 -94.210667 361.408097 0.000000 0.000000 0.000000 -13.815590 -4.723330 -10.725923 1.935697 8.730772 24.956844 0.537477 -0.686500 -13.631009 1.757574 -8.341733 -23.757102 0.000000 0.000000 0.000000 6.366632 18.094189 -12.627507 -4.137978 -12.339668 36.947599 -0.089693 -15.709873 -23.172092 -1.686215 -8.173645 23.245987 2.217620 -1.081293 10.963452 2.166158 -1.144873 1.456084 1.182596 -0.621709 -4.624087 -3.444353 -2.358714 -11.807650 -1.129463 -3.891578 35.807731 -0.582703 -2.822211 14.283539 0.000000 0.000000 0.000000 8.268575 1.541808 -25.887812 19.878262 -30.495169 5.469522 31.777760 3.312055 -16.100174 0.000000 0.000000 0.000000 -7.125000 0.000000 0.000000 3.964597 48.693865 -0.363621 0.000000 0.000000 0.000000 -9.449393 1.970827 6.968816 -21.844976 -32.801179 -6.501761 -25.605859 -8.375297 -24.977411 0.000000 0.000000 0.000000 7.125000 0.000000 0.000000 2.392872 2.681453 2.280342
11.519454 18.052201 25.642202 -349.460068 -92.869182 352.866190 0.000000 0.000000 0.000000 -16.409662 -7.488491 -12.281088 2.148541 9.168726 26.324614 0.612563 -1.330184 -14.390277 0.435204 -4.233265 -11.733893 0.000000 0.000000 0.000000 19.202307 15.366691 -19.881959 -7.855211 -16.011733 52.039576 -1.948975 0.149799 -26.414044 -0.549904 -4.717727 13.111059 0.269536 -0.908375 10.393602 1.747674 -1.167571 1.695265 1.827649 -0.601651 -4.028246 -3.125326 -2.017165 -11.073096 -1.957728 -3.212815 35.883270 -0.855503 -2.607251 14.118361 0.000000 0.000000 0.000000 10.182844 2.685592 -19.985222 22.703678 -33.763105 6.972947 30.468930 -1.623933 -14.683224 0.000000 0.000000 0.000000 -7.125000 0.000000 0.000000 2.806172 46.870445 -0.129534 0.000000 0.000000 0.000000 -6.160028 1.520760 10.611253 -21.641399 -32.568981 -6.391904 -25.430897 -8.746573 -24.873195 0.000000 0.000000 0.000000 7.125000 0.000000 0.000000 2.485514 2.827976 2.362254
11.291943 17.897507 26.187723 -487.512235 -93.823059 493.444601 0.000000 0.000000 0.000000 -21.145272 -4.050753 -19.151357 2.815428 10.390045 30.249402 0.940306 -13.104024 -18.345523 0.446969 -4.281794 -11.872000 0.000000 0.000000 0.000000 24.484605 14.656604 -17.567696 -4.918240 -13.290978 40.468011 -1.769227 -4.402649 -27.027998 -0.127753 2.272038 -6.259534 -2.763181 -2.501892 8.039122 0.159609 -3.588806 0.936445 2.096901 -1.755832 -3.351421 -2.567658 -2.078533 -10.762637 -3.530414 -2.907330 35.829888 -1.533780 -2.614536 13.982253 0.000000 0.000000 0.000000 11.290450 3.886888 -21.249821 18.909080 -29.305413 4.986321 30.594548 -1.500645 -16.484799 0.000000 0.000000 0.000000 -7.125000 0.000000 0.000000 2.751445 48.932577 -0.266942 0.000000 0.000000 0.000000 -3.736210 3.138674 14.318918 -24.556774 -35.747519 -8.029563 -26.810596 -11.869668 -25.502557 0.000000 0.000000 0.000000 7.125000 0.000000 0.000000 1.737084 1.867258 1.680338
11.081945 17.894383 26.614752 -500.642167 -93.106483 506.883489 0.000000 0.000000 0.000000 -21.070641 -2.204455 -21.435590 3.558354 11.547330 34.150002 0.788677 -15.266045 -17.876483 1.539350 -7.828954 -22.197434 0.000000 0.000000 0.000000 24.282964 10.716400 -16.594687 -4.278365 -12.521913 37.604215 -1.594948 -3.398148 -25.284194 -0.003327 -0.373373 1.025821 -0.072063 -1.223174 8.157336 0.083050 -1.662644 1.392043 0.305204 -0.839256 -3.125859 -1.548649 -3.319050 -10.223572 -4.453488 -4.647275 35.612255 -2.292116 -3.319756 13.677647 0.000000 0.000000 0.000000 6.527048 3.664487 -16.549340 17.548538 -27.575190 4.338245 27.443289 2.123158 -16.021761 0.000000 0.000000 0.000000 -7.125000 0.000000 0.000000 -0.276433 47.910004 0.019169 0.000000 0.000000 0.000000 -3.750202 2.367662 13.645126 -22.087446 -33.075636 -6.633502 -26.861379 -11.893799 -25.040729 0.000000 0.000000 0.000000 7.125000 0.000000 0.000000 1.640322 2.349616 1.572253
10.684853 17.977096 26.826583 -551.239452 -94.841396 556.036349 0.000000 0.000000 0.000000 -13.217177 -7.373499 -30.016683 6.934590 15.276530 48.626471 -1.248301 -21.987017 -3.024419 0.349674 2.936728 8.158805 0.000000 0.000000 0.000000 27.800648 8.488100 -11.192898 -3.233232 -11.061908 32.490551 -1.463680 -3.440278 -24.316354 -0.064835 -1.631161 4.487605 1.947045 -1.310474 10.335168 1.441753 -1.520043 1.632735 0.613157 -0.796823 -4.102075 -2.093090 -3.323372 -9.420003 -4.044382 -4.789771 36.401950 -2.068064 -3.424466 13.888422 0.000000 0.000000 0.000000 3.929845 5.250924 -14.741254 15.463784 -24.788036 3.418076 27.937564 2.223701 -16.482410 0.000000 0.000000 0.000000 -7.125000 0.000000 0.000000 0.134318 48.495281 -0.010508 0.000000 0.000000 0.000000 -3.230452 2.148064 11.296009 -22.379022 -33.402683 -6.793342 -25.943664 -10.658740 -25.429500 0.000000 0.000000 0.000000 7.125000 0.000000 0.000000 2.249646 2.130823 2.166213
9.874588 18.041448 27.222975 -554.117980 -93.890055 559.215020 0.000000 0.000000 0.000000 -10.401435 -10.743937 -30.703431 2.344848 9.549760 27.530950 0.427761 0.552025 -12.567407 0.252223 -3.131528 -8.649980 0.000000 0.000000 0.000000 27.452125 10.023746 -4.888041 -2.356000 -9.570983 27.598416 -1.398144 -5.824602 -25.115030 -0.078237 -1.802883 4.961257 2.467684 -0.729903 10.897413 0.970741 -0.697479 1.715715 -0.276110 -0.402235 -4.334545 -2.989989 -3.496620 -9.153455 -3.404385 -4.916678 35.283517 -1.609498 -3.472042 13.383128 0.000000 0.000000 0.000000 3.141775 6.619158 -10.823280 14.428303 -23.343780 2.995709 29.733677 2.285159 -15.943065 0.000000 0.000000 0.000000 -7.125000 0.000000 0.000000 1.964014 48.180029 -0.154174 0.000000 0.000000 0.000000 -3.239399 1.833426 15.233519 -21.867173 -32.826499 -6.513638 -25.198193 -9.661461 -24.948434 0.000000 0.000000 0.000000 7.125000 0.000000 0.000000 2.636732 2.795455 2.507709
8.654993 18.025444 27.763028 -619.179668 -92.871890 623.588902 0.000000 0.000000 0.000000 -2.349835 -20.017649 -25.419812 0.940616 6.177012 17.298977 0.362981 4.859650 -14.218799 1.000843 6.324763 17.743673 0.000000 0.000000 0.000000 28.004735 8.000760 2.715138 -1.533640 -7.816375 22.158797 -1.166616 -5.757832 -23.236555 -0.143886 2.444516 -6.735899 3.491002 0.762989 10.918233 0.708644 1.345547 2.405450 -1.410583 0.600737 -3.542055 -1.686814 -4.124052 -8.576363 -2.815938 -6.430916 35.747276 -1.805598 -3.899091 13.416491 0.000000 0.000000 0.000000 4.077150 6.173087 -12.631530 14.563142 -23.534033 3.049373 28.217557 1.694654 -16.014448 0.000000 0.000000 0.000000 -7.125000 0.000000 0.000000 0.475745 48.021119 -0.035499 0.000000 0.000000 0.000000 -2.420694 0.018278 14.389732 -21.527162 -32.438476 -6.330370 -24.950000 -10.150430 -25.211577 0.000000 0.000000 0.000000 7.125000 0.000000 0.000000 2.821737 2.566989 2.695766
6.979262 17.792496 28.683259 -677.106888 -92.387896 680.767075 0.000000 0.000000 0.000000 -11.935918 -9.248929 -17.528625 0.404680 4.083572 11.311894 -0.036988 -4.338139 -1.271548 5.473237 -13.897666 -42.829099 0.000000 0.000000 0.000000 23.842551 12.372720 0.383498 -5.187946 -13.590562 41.624871 -1.442802 1.156334 -22.366181 -0.005731 -0.007844 0.021782 2.099491 0.192900 10.277452 0.194714 0.413962 2.215278 -1.032148 0.156254 -3.439567 -0.866415 -4.075266 -8.074485 -3.275503 -6.628479 36.461543 -2.178583 -4.003771 13.564345 0.000000 0.000000 0.000000 3.730170 5.763933 -11.232567 14.142229 -22.937647 2.883333 27.414964 -0.262424 -16.479935 0.000000 0.000000 0.000000 -7.125000 0.000000 0.000000 -0.374848 48.410274 0.031503 0.000000 0.000000 0.000000 -2.151267 1.162364 13.228853 -21.335767 -32.218181 -6.228027 -25.818342 -11.382222 -24.701087 0.000000 0.000000 0.000000 7.125000 0.000000 0.000000 2.226790 2.931450 2.111707
